# xmcd
#
# Track frame offsets:
#	150
#	13215
#	25502
#	39652
#	52582
#	66727
#	84190
#	105612
#	120322
#	135045
#	147105
#	158920
#	171535
#	184502
#	194977
#	208495
#	221650
#	233752
#	245445
#	256225
#
# Disc length: 3598 seconds
#
# Revision: 0
# Processed by: cddbd v1.4PL0 Copyright (c) Steve Scherf et al.
# Submitted via: MusicWizard 6.0.1
#
DISCID=190e0c14
DTITLE=Various Artist - The Ultimate Anthology Of Blues and Jazz, Volume 4 [CD 2/2)
DYEAR=1900
DGENRE=Blues
TTITLE0=Joe Turner and His Fly Cats - Piney Brown Blues
TTITLE1=Joe Turner - Doggin' The Dog
TTITLE2=Harlan Leonard and His Rockets - "400" Swing
TTITLE3=Jay McShann W. Walter Brown - Confessin' The Blues
TTITLE4=Jay McShann and His Orchestra - Sepian Bounce
TTITLE5=Kansas City Seven - Destination K.C.
TTITLE6=Kansas City Seven - After Theater Jump
TTITLE7=Hot Lips Page and His Orchestra - My Gal Is Gone
TTITLE8=Hot Lips Page and His Orchestra - You'd Be Frantic Too
TTITLE9=Charlie Parker's Reboppers - Billie's Bounce
TTITLE10=Jay McShann and His Sextette With Jimmy Witherspoon - Voodoo Woman Blues
TTITLE11=Pete Johnson - Backroom Blues
TTITLE12=Pete Johnson - 1280 Stomp
TTITLE13=Myra Taylor - Tell Your Best Friend Nothing
TTITLE14=Jesse Price - Kansas City Mama
TTITLE15=Julia Lee and Her Boy Friends - Snatch And Grab It
TTITLE16=Julia Lee and Her Boy Friends - King Size Papa
TTITLE17=Jesse Price - Jump It With A Shuffle
TTITLE18=Jesse Stone - Sneaky Pete
TTITLE19=Charlie Parker All-Stars - Parker's Mood
EXTD=
EXTT0=
EXTT1=
EXTT2=
EXTT3=
EXTT4=
EXTT5=
EXTT6=
EXTT7=
EXTT8=
EXTT9=
EXTT10=
EXTT11=
EXTT12=
EXTT13=
EXTT14=
EXTT15=
EXTT16=
EXTT17=
EXTT18=
EXTT19=
PLAYORDER=
